<svg width="500" height="319" viewBox="0 0 500 319" fill="none" xmlns="http://www.w3.org/2000/svg">
<path d="M249.961 299.294C336.708 299.294 407.031 258.657 407.031 208.528C407.031 158.399 336.708 117.762 249.961 117.762C163.213 117.762 92.8906 158.399 92.8906 208.528C92.8906 258.657 163.213 299.294 249.961 299.294Z" fill="url(#paint0_linear)"/>
<path opacity="0.48" d="M407.047 178.641H403.165C396.86 162.477 382.823 147.106 361.036 134.532C299.699 99.0807 200.239 99.0807 138.979 134.532C118.404 146.422 104.817 160.783 97.9688 175.968H93.0463V196.095C91.8195 220.2 107.131 244.539 138.979 262.926C200.317 298.362 299.776 298.362 361.114 262.926C391.782 245.192 407.125 221.972 407.125 198.737L407.047 178.641Z" fill="url(#paint1_linear)"/>
<path opacity="0.48" d="M403.165 170.838C402.948 170.279 402.715 169.719 402.466 169.16V155.933H394.236V154.985C392.086 152.098 389.752 149.351 387.249 146.764V155.933H382.59V142.21C380.406 140.22 378.066 138.272 375.571 136.366V155.965H370.913V132.884C368.661 131.33 366.254 129.776 363.863 128.315V155.887H359.204V125.58C356.906 124.285 354.551 123.041 352.139 121.85V155.887H347.48V119.689C345.151 118.653 342.791 117.617 340.399 116.581V155.887H335.741V124.103H328.644V155.933H323.986V132.884H316.858V155.98H312.2V141.619H305.057V155.98H300.491V150.369H293.395V155.98H206.653V150.369H199.479V155.98H194.913V141.619H187.801V155.98H183.143V132.884H176.015V155.98H171.357V124.103H164.26V155.933H159.602V116.596C157.21 117.57 154.85 118.606 152.521 119.705V155.98H147.862V121.865C145.455 123.062 143.095 124.29 140.797 125.58V155.933H136.138V128.315C133.685 129.786 131.335 131.304 129.088 132.869V155.933H124.43V136.288C121.93 138.184 119.6 140.143 117.411 142.132V155.933H112.752V146.608C110.258 149.199 107.925 151.939 105.764 154.814V155.856H97.5344V168.056H94.0405V201.798C95.4027 208.098 97.7561 214.142 101.013 219.703V198.674H105.764V226.914C107.916 229.791 110.25 232.527 112.752 235.105V198.674H117.411V239.674C119.6 241.648 121.945 243.607 124.43 245.503V198.674H129.088V248.922C131.345 250.476 133.695 251.999 136.138 253.491V198.674H140.797V256.18C143.095 257.455 145.45 258.693 147.862 259.895V198.674H152.521V262.133C154.85 263.169 157.21 264.205 159.602 265.241V198.721H164.26V267.106C166.589 267.992 168.919 268.831 171.357 269.64V198.674H176.015V271.007C178.376 271.738 180.674 272.422 183.143 273.074V198.674H187.801V274.318C190.162 274.893 192.537 275.452 194.944 275.965V198.721H199.51V276.913C201.886 277.38 204.277 277.799 206.684 278.203V198.674H211.234V278.856C213.61 279.214 216.016 279.524 218.423 279.82V198.674H222.942V280.317C225.334 280.55 227.74 280.752 230.163 280.939V198.674H234.651V281.234C237.073 281.358 239.48 281.467 241.902 281.545V198.674H246.375V281.638C248.818 281.638 251.256 281.638 253.688 281.638V198.674H258.161V281.545C260.583 281.545 262.99 281.358 265.412 281.234V198.674H269.9V280.939C272.323 280.752 274.729 280.55 277.121 280.301V198.674H281.64V279.804C284.047 279.524 286.453 279.198 288.829 278.856V198.674H293.395V278.141C295.802 277.753 298.193 277.317 300.569 276.851V198.674H305.134V275.872C307.541 275.344 309.917 274.8 312.277 274.209V198.674H316.936V273.059C319.327 272.406 321.703 271.707 324.063 270.992V198.674H328.722V269.5C331.113 268.707 333.489 267.945 335.818 266.982V198.674H340.477V265.163C342.868 264.184 345.229 263.174 347.558 262.055V198.674H352.216V259.895C354.629 258.693 356.984 257.455 359.282 256.18V198.674H363.94V253.46C366.394 251.968 368.744 250.44 370.99 248.875V198.674H375.649V245.456C378.133 243.539 380.473 241.591 382.668 239.612V198.674H387.326V235.058C389.833 232.474 392.167 229.728 394.314 226.837V198.674H398.988V219.641C402.271 214.031 404.625 207.927 405.96 201.565V170.854L403.165 170.838Z" fill="url(#paint2_linear)"/>
<path d="M249.961 261.636C336.708 261.636 407.031 220.998 407.031 170.87C407.031 120.741 336.708 80.1038 249.961 80.1038C163.213 80.1038 92.8906 120.741 92.8906 170.87C92.8906 220.998 163.213 261.636 249.961 261.636Z" fill="url(#paint3_linear)"/>
<path opacity="0.3" d="M250.023 80.0413C214.432 80.0413 178.841 86.9886 149.865 100.868L103 202.824C110.64 214.558 122.581 225.547 138.902 234.981C149.434 240.983 160.554 245.889 172.086 249.621L250.023 80.0413Z" fill="#91A2FA"/>
<path opacity="0.3" d="M294.03 83.7402L213.406 259.149C232.889 261.797 252.602 262.318 272.197 260.703L346.407 99.2357C329.679 91.8574 312.078 86.6501 294.03 83.7402Z" fill="#91A2FA"/>
<g opacity="0.05">
<path opacity="0.05" d="M249.961 251.253C326.786 251.253 389.065 215.264 389.065 170.87C389.065 126.475 326.786 90.4858 249.961 90.4858C173.136 90.4858 110.857 126.475 110.857 170.87C110.857 215.264 173.136 251.253 249.961 251.253Z" fill="url(#paint4_linear)"/>
<g opacity="0.05">
<path opacity="0.05" d="M1.49073 170.528L0 169.657L242.337 29.6228L243.828 30.4932L1.49073 170.528Z" fill="#91A2FA"/>
<path opacity="0.05" d="M5.76075 172.983L4.27002 172.128L246.607 32.0935L248.098 32.9483L5.76075 172.983Z" fill="#91A2FA"/>
<path opacity="0.05" d="M10.0317 175.455L8.54102 174.6L250.878 34.5654L252.369 35.4202L10.0317 175.455Z" fill="#91A2FA"/>
<path opacity="0.05" d="M14.3018 177.926L12.811 177.071L255.148 37.0364L256.639 37.8912L14.3018 177.926Z" fill="#91A2FA"/>
<path opacity="0.05" d="M18.5723 180.397L17.0815 179.527L259.418 39.4922L260.909 40.3625L18.5723 180.397Z" fill="#91A2FA"/>
<path opacity="0.05" d="M22.8423 182.852L21.3516 181.998L263.688 41.9631L265.179 42.818L22.8423 182.852Z" fill="#91A2FA"/>
<path opacity="0.05" d="M27.1128 185.323L25.6221 184.469L267.959 44.4341L269.434 45.2889L27.1128 185.323Z" fill="#91A2FA"/>
<path opacity="0.05" d="M31.3833 187.795L29.8926 186.94L272.229 46.9055L273.705 47.7603L31.3833 187.795Z" fill="#91A2FA"/>
<path opacity="0.05" d="M35.6533 190.267L34.1626 189.396L276.499 49.3618L277.975 50.2166L35.6533 190.267Z" fill="#91A2FA"/>
<path opacity="0.05" d="M39.9238 192.722L38.4331 191.867L280.77 51.8328L282.245 52.6876L39.9238 192.722Z" fill="#91A2FA"/>
<path opacity="0.05" d="M44.1783 195.193L42.7031 194.338L285.04 54.3035L286.515 55.1583L44.1783 195.193Z" fill="#91A2FA"/>
<path opacity="0.05" d="M48.4488 197.664L46.9736 196.809L289.311 56.7749L290.786 57.6297L48.4488 197.664Z" fill="#91A2FA"/>
<path opacity="0.05" d="M52.7193 200.12L51.2441 199.265L293.581 59.2302L295.056 60.085L52.7193 200.12Z" fill="#91A2FA"/>
<path opacity="0.05" d="M56.9898 202.591L55.5146 201.736L297.852 61.7017L299.327 62.5565L56.9898 202.591Z" fill="#91A2FA"/>
<path opacity="0.05" d="M61.2599 205.062L59.7847 204.207L302.122 64.1726L303.597 65.0274L61.2599 205.062Z" fill="#91A2FA"/>
<path opacity="0.05" d="M65.5308 207.533L64.04 206.678L306.377 66.6284L307.868 67.4988L65.5308 207.533Z" fill="#91A2FA"/>
<path opacity="0.05" d="M69.8008 210.005L68.3101 209.134L310.647 69.0999L312.138 69.9547L69.8008 210.005Z" fill="#91A2FA"/>
<path opacity="0.05" d="M74.0713 212.461L72.5806 211.606L314.917 71.5713L316.408 72.4261L74.0713 212.461Z" fill="#91A2FA"/>
<path opacity="0.05" d="M78.3413 214.932L76.8506 214.077L319.187 74.0422L320.678 74.8971L78.3413 214.932Z" fill="#91A2FA"/>
<path opacity="0.05" d="M82.6118 217.403L81.1211 216.532L323.458 76.4978L324.949 77.3682L82.6118 217.403Z" fill="#91A2FA"/>
<path opacity="0.05" d="M86.8823 219.858L85.3916 219.003L327.728 78.9688L329.219 79.8236L86.8823 219.858Z" fill="#91A2FA"/>
<path opacity="0.05" d="M91.1524 222.329L89.6616 221.475L331.998 81.4402L333.489 82.295L91.1524 222.329Z" fill="#91A2FA"/>
<path opacity="0.05" d="M95.4229 224.801L93.9321 223.946L336.269 83.9116L337.76 84.7664L95.4229 224.801Z" fill="#91A2FA"/>
<path opacity="0.05" d="M99.6929 227.272L98.2021 226.417L340.539 86.3669L342.03 87.2373L99.6929 227.272Z" fill="#91A2FA"/>
<path opacity="0.05" d="M103.963 229.727L102.473 228.872L344.81 88.8379L346.3 89.6927L103.963 229.727Z" fill="#91A2FA"/>
<path opacity="0.05" d="M108.234 232.198L106.743 231.343L349.08 91.3088L350.555 92.1637L108.234 232.198Z" fill="#91A2FA"/>
<path opacity="0.05" d="M112.504 234.67L111.014 233.815L353.351 93.7803L354.826 94.6351L112.504 234.67Z" fill="#91A2FA"/>
<path opacity="0.05" d="M116.759 237.141L115.284 236.271L357.621 96.2361L359.096 97.1064L116.759 237.141Z" fill="#91A2FA"/>
<path opacity="0.05" d="M121.029 239.597L119.554 238.742L361.891 98.7075L363.366 99.5623L121.029 239.597Z" fill="#91A2FA"/>
<path opacity="0.05" d="M125.299 242.067L123.824 241.213L366.161 101.178L367.636 102.033L125.299 242.067Z" fill="#91A2FA"/>
<path opacity="0.05" d="M129.57 244.538L128.095 243.684L370.432 103.649L371.907 104.504L129.57 244.538Z" fill="#91A2FA"/>
<path opacity="0.05" d="M133.84 247.01L132.365 246.14L374.702 106.105L376.177 106.96L133.84 247.01Z" fill="#91A2FA"/>
<path opacity="0.05" d="M138.11 249.466L136.635 248.611L378.957 108.576L380.447 109.431L138.11 249.466Z" fill="#91A2FA"/>
<path opacity="0.05" d="M142.38 251.937L140.905 251.082L383.242 111.048L384.717 111.903L142.38 251.937Z" fill="#91A2FA"/>
<path opacity="0.05" d="M146.651 254.408L145.176 253.554L387.497 113.504L388.988 114.374L146.651 254.408Z" fill="#91A2FA"/>
<path opacity="0.05" d="M150.921 256.879L149.446 256.009L391.768 115.975L393.258 116.845L150.921 256.879Z" fill="#91A2FA"/>
<path opacity="0.05" d="M155.192 259.335L153.701 258.48L396.038 118.446L397.529 119.3L155.192 259.335Z" fill="#91A2FA"/>
<path opacity="0.05" d="M159.462 261.807L157.972 260.952L400.309 120.917L401.799 121.772L159.462 261.807Z" fill="#91A2FA"/>
<path opacity="0.05" d="M163.733 264.277L162.242 263.423L404.579 123.373L406.07 124.243L163.733 264.277Z" fill="#91A2FA"/>
<path opacity="0.05" d="M168.002 266.749L166.512 265.878L408.849 125.844L410.339 126.714L168.002 266.749Z" fill="#91A2FA"/>
<path opacity="0.05" d="M172.273 269.204L170.782 268.349L413.119 128.315L414.61 129.17L172.273 269.204Z" fill="#91A2FA"/>
<path opacity="0.05" d="M176.544 271.675L175.054 270.82L417.391 130.786L418.881 131.641L176.544 271.675Z" fill="#91A2FA"/>
<path opacity="0.05" d="M180.814 274.147L179.323 273.292L421.66 133.258L423.151 134.113L180.814 274.147Z" fill="#91A2FA"/>
<path opacity="0.05" d="M185.084 276.618L183.594 275.748L425.931 135.714L427.421 136.568L185.084 276.618Z" fill="#91A2FA"/>
<path opacity="0.05" d="M189.355 279.074L187.864 278.219L430.201 138.185L431.692 139.039L189.355 279.074Z" fill="#91A2FA"/>
<path opacity="0.05" d="M193.626 281.545L192.135 280.69L434.472 140.656L435.962 141.51L193.626 281.545Z" fill="#91A2FA"/>
<path opacity="0.05" d="M197.895 284.016L196.404 283.161L438.741 143.111L440.232 143.982L197.895 284.016Z" fill="#91A2FA"/>
<path opacity="0.05" d="M202.166 286.471L200.675 285.616L443.012 145.582L444.487 146.437L202.166 286.471Z" fill="#91A2FA"/>
<path opacity="0.05" d="M206.436 288.943L204.945 288.088L447.282 148.054L448.757 148.909L206.436 288.943Z" fill="#91A2FA"/>
<path opacity="0.05" d="M210.69 291.414L209.215 290.559L451.552 150.525L453.027 151.38L210.69 291.414Z" fill="#91A2FA"/>
<path opacity="0.05" d="M214.961 293.886L213.485 293.031L455.822 152.981L457.297 153.851L214.961 293.886Z" fill="#91A2FA"/>
<path opacity="0.05" d="M219.232 296.341L217.757 295.486L460.094 155.452L461.569 156.306L219.232 296.341Z" fill="#91A2FA"/>
<path opacity="0.05" d="M223.503 298.812L222.027 297.957L464.364 157.923L465.839 158.777L223.503 298.812Z" fill="#91A2FA"/>
<path opacity="0.05" d="M227.772 301.284L226.297 300.429L468.634 160.395L470.109 161.249L227.772 301.284Z" fill="#91A2FA"/>
<path opacity="0.05" d="M232.042 303.755L230.551 302.885L472.888 162.85L474.378 163.721L232.042 303.755Z" fill="#91A2FA"/>
<path opacity="0.05" d="M236.312 306.211L234.821 305.356L477.158 165.321L478.649 166.176L236.312 306.211Z" fill="#91A2FA"/>
<path opacity="0.05" d="M240.583 308.681L239.092 307.826L481.429 167.792L482.919 168.647L240.583 308.681Z" fill="#91A2FA"/>
<path opacity="0.05" d="M244.852 311.153L243.361 310.298L485.698 170.263L487.189 171.118L244.852 311.153Z" fill="#91A2FA"/>
<path opacity="0.05" d="M249.123 313.623L247.632 312.753L489.969 172.718L491.459 173.589L249.123 313.623Z" fill="#91A2FA"/>
<path opacity="0.05" d="M253.393 316.08L251.902 315.225L494.239 175.191L495.73 176.045L253.393 316.08Z" fill="#91A2FA"/>
<path opacity="0.05" d="M257.663 318.551L256.172 317.696L498.509 177.662L499.999 178.516L257.663 318.551Z" fill="#91A2FA"/>
</g>
</g>
<path d="M151.605 119.441C205.954 88.0615 294 88.0615 348.334 119.441C374.298 134.455 387.839 153.913 388.988 173.574C390.23 152.111 376.689 130.414 348.334 114.032C293.985 82.6373 205.923 82.6373 151.605 114.032C123.25 130.414 109.678 152.111 110.951 173.574C112.1 153.913 125.688 134.439 151.605 119.441Z" fill="url(#paint5_linear)"/>
<path d="M292.96 153.851C284.677 153.116 276.343 154.512 268.751 157.907C278.068 150.136 275.92 142.194 262.307 134.081L261.297 133.491C256.882 130.858 252.142 128.815 247.198 127.414C242.518 126.049 237.676 125.322 232.803 125.253C228.15 125.283 223.518 125.889 219.013 127.056C216.498 127.699 214.096 128.414 211.808 129.201L203.05 124.134L190.162 131.579L197.367 135.76C196.093 136.444 194.805 137.159 193.485 137.92L188.826 140.656L181.683 136.521L168.794 143.966L175.938 148.1L167.04 153.245L163.561 155.265L162.614 155.794L147.831 164.342L160.72 171.802L175.503 163.254L268.394 216.967L253.595 225.516L266.484 232.96L281.282 224.412L285.708 221.863L294.606 216.719L301.873 220.915L314.762 213.47L310.103 210.813L307.448 209.258L316.004 204.316L323.271 208.512L336.16 201.068L331.501 198.41L327.806 196.265C332.883 191.836 335.57 187.36 335.912 182.852C336.284 176.117 330.694 169.383 319.141 162.648L318.364 162.181C310.589 157.617 301.926 154.776 292.96 153.851ZM206.435 150.836L210.581 148.427C220.851 142.5 230.686 142.241 240.086 147.65C245.583 150.758 248.564 153.726 249.076 156.353C249.589 158.98 247.011 161.933 241.312 165.197L236.297 168.087L206.435 150.836ZM289.233 198.674L253.564 178.112L258.72 175.128C263.621 172.02 269.316 170.401 275.118 170.465C280.232 170.714 286.133 172.786 292.82 176.682C298.783 180.133 302.003 183.319 302.479 186.241C302.96 189.162 300.351 192.271 294.715 195.566L289.233 198.674Z" fill="url(#paint6_linear)"/>
<path d="M168.717 133.506V141.775L175.86 137.641L168.717 133.506Z" fill="url(#paint7_linear)"/>
<path d="M190.161 121.119V129.388L197.366 125.3L190.161 121.119Z" fill="url(#paint8_linear)"/>
<path d="M274.45 137.656V147.478L267.99 143.515L274.45 137.656Z" fill="url(#paint9_linear)"/>
<path d="M335.99 170.87V182.868L326.3 176.869L335.99 170.87Z" fill="url(#paint10_linear)"/>
<path d="M292.96 143.391C284.677 142.657 276.343 144.053 268.751 147.448C278.068 139.677 275.92 131.73 262.307 123.606L261.297 123.031C256.882 120.399 252.142 118.356 247.198 116.954C242.52 115.582 237.677 114.855 232.803 114.794C228.15 114.824 223.518 115.429 219.013 116.597C216.498 117.229 214.096 117.944 211.808 118.742L203.05 113.675L190.162 121.119L197.367 125.3C196.093 125.984 194.805 126.699 193.485 127.461L188.826 130.196L181.683 126.062L168.794 133.507L175.938 137.641L167.04 142.785L163.561 144.79L162.614 145.334L147.831 153.882L160.72 161.342L175.503 152.794L268.472 206.508L253.673 215.056L266.562 222.501L281.36 213.953L285.786 211.404L294.684 206.259L301.951 210.456L314.839 203.011L310.181 200.353L307.526 198.799L316.082 193.857L323.349 198.053L336.238 190.608L331.579 187.951L327.883 185.806C332.961 181.376 335.648 176.9 335.989 172.393C336.362 165.658 330.772 158.923 319.218 152.188L318.442 151.737C310.648 147.15 301.956 144.303 292.96 143.391ZM206.435 140.376L210.581 137.967C220.851 132.04 230.686 131.781 240.086 137.19C245.583 140.298 248.564 143.267 249.077 145.894C249.589 148.52 247.011 151.473 241.312 154.737L236.297 157.628L206.435 140.376ZM289.233 188.215L253.626 167.653L258.782 164.668C263.683 161.561 269.378 159.941 275.18 160.006C280.294 160.255 286.195 162.327 292.882 166.223C298.845 169.673 302.065 172.859 302.541 175.781C303.022 178.703 300.414 181.811 294.777 185.106L289.233 188.215Z" fill="url(#paint11_linear)"/>
<path d="M336.206 190.623V201.083L323.317 208.528V198.068L336.206 190.623Z" fill="url(#paint12_linear)"/>
<path d="M314.762 203.011V213.471L301.873 220.915V210.455L314.762 203.011Z" fill="url(#paint13_linear)"/>
<path d="M266.498 222.501V232.961L253.594 225.516V215.056L266.498 222.501Z" fill="url(#paint14_linear)"/>
<path d="M147.754 153.882V164.357L160.643 171.802V161.342L147.754 153.882Z" fill="url(#paint15_linear)"/>
<path d="M175.425 163.254V152.794L160.642 161.342V171.802L175.425 163.254Z" fill="url(#paint16_linear)"/>
<path d="M175.424 152.794V163.254L259.34 211.745L268.393 206.508L175.424 152.794Z" fill="url(#paint17_linear)"/>
<path d="M251.887 95.2259C246.404 95.3399 240.983 94.045 236.141 91.4647C231.762 88.9469 229.355 85.5276 229.355 81.8597C229.355 78.1917 231.762 74.788 236.141 72.2546C244.822 67.2501 258.953 67.2501 267.649 72.2546C272.012 74.788 274.419 78.2073 274.419 81.8597C274.419 85.5121 272.012 88.9469 267.649 91.4647C262.802 94.0449 257.376 95.3398 251.887 95.2259ZM251.887 70.2031C246.702 70.1076 241.578 71.3323 236.995 73.7622C233.191 75.9692 231.095 78.8445 231.095 81.8597C231.095 84.8748 233.191 87.7657 237.011 89.9726C245.21 94.713 258.564 94.713 266.779 89.9726C270.583 87.7657 272.695 84.8904 272.695 81.8597C272.695 78.8289 270.583 75.9692 266.779 73.7622C262.197 71.3304 257.072 70.1055 251.887 70.2031Z" fill="#91A2FA"/>
<path d="M261.22 87.253C258.334 88.7217 255.142 89.4873 251.903 89.4873C248.665 89.4873 245.473 88.7217 242.586 87.253C237.431 84.2845 237.431 79.4819 242.586 76.4823C245.473 75.0136 248.665 74.248 251.903 74.248C255.142 74.248 258.334 75.0136 261.22 76.4823C266.36 79.4509 266.36 84.2845 261.22 87.253Z" fill="#97A6FC"/>
<path d="M306.282 55.7644L297.043 50.4334L312.773 41.3413L322.028 46.6722L306.282 55.7644Z" fill="#91A2FA"/>
<path opacity="0.8" d="M289.667 47.341L278.021 43.9062L288.13 32.4517L299.776 35.8865L289.667 47.341Z" fill="#91A2FA"/>
<path opacity="0.6" d="M269.357 42.2744L256.453 41.0932L259.931 28.3953L272.836 29.5765L269.357 42.2744Z" fill="#91A2FA"/>
<path opacity="0.4" d="M247.337 41.0932L234.417 42.2744L230.938 29.5765L243.843 28.3953L247.337 41.0932Z" fill="#91A2FA"/>
<path opacity="0.2" d="M225.753 43.9062L214.106 47.341L204.013 35.8709L215.643 32.4517L225.753 43.9062Z" fill="#91A2FA"/>
<path opacity="0.1" d="M206.73 50.4334L197.49 55.7644L181.76 46.6722L190.999 41.3413L206.73 50.4334Z" fill="#91A2FA"/>
<path opacity="0.2" d="M275.444 70.1408L272.198 68.2602L295.677 54.6919L298.923 56.5725L275.444 70.1408Z" fill="#91A2FA"/>
<path opacity="0.4" d="M268.006 66.5039L263.922 65.2916L279 48.1953L283.084 49.4076L268.006 66.5039Z" fill="#91A2FA"/>
<path opacity="0.6" d="M259.015 64.375L254.48 63.9553L259.667 45.0095L264.201 45.4291L259.015 64.375Z" fill="#91A2FA"/>
<path opacity="0.8" d="M249.31 63.9553L244.775 64.375L239.573 45.4291L244.108 45.0095L249.31 63.9553Z" fill="#91A2FA"/>
<path d="M239.853 65.2916L235.769 66.5039L220.69 49.4076L224.79 48.1953L239.853 65.2916Z" fill="#91A2FA"/>
<path d="M231.591 68.2602L228.345 70.1408L204.866 56.5725L208.112 54.6919L231.591 68.2602Z" fill="#91A2FA"/>
<path d="M225.302 72.5499L223.221 74.9123L193.64 66.1932L195.72 63.8308L225.302 72.5499Z" fill="#91A2FA"/>
<path d="M221.621 77.7564L220.906 80.3675L188.11 77.3678L188.825 74.7412L221.621 77.7564Z" fill="#91A2FA"/>
<path d="M220.906 83.3518L221.621 85.9784L188.825 88.978L188.11 86.3514L220.906 83.3518Z" fill="#91A2FA"/>
<path d="M223.221 88.8225L225.302 91.1849L195.72 99.8885L193.64 97.5261L223.221 88.8225Z" fill="#91A2FA"/>
<path d="M228.345 93.5942L231.591 95.4748L208.112 109.043L204.866 107.162L228.345 93.5942Z" fill="#91A2FA"/>
<path opacity="0.6" d="M344.11 37.8129C378.63 61.8721 380.556 96.2668 349.934 121.507L362.356 132.962C404.609 102.53 403.677 58.7171 359.608 28.8296L344.11 37.8129Z" fill="#97A6FC"/>
<path opacity="0.2" d="M270.568 150.168C234.061 153.478 195.395 147.059 167.273 130.771C161.132 127.279 155.403 123.109 150.192 118.338L129.12 122.534C135.899 129.206 143.527 134.954 151.807 139.63C187.382 160.177 237.213 167.482 282.898 161.56L270.568 150.168Z" fill="#91A2FA"/>
<path d="M111.852 93.4699L132.924 89.2735C129.197 69.1931 140.688 48.3511 167.273 32.9644C211.311 7.52199 281.112 6.06103 328.132 28.566L343.583 19.6448C288.006 -7.77146 204.401 -6.31051 151.853 24.0588C119.103 42.9735 105.78 68.8667 111.852 93.4699Z" fill="#97A6FC"/>
<path d="M238.983 127.585L230.737 122.829L336.61 61.6399L344.856 66.3958L238.983 127.585Z" fill="#97A6FC"/>
<path opacity="0.8" d="M250.691 134.361L242.445 129.59L288.472 102.997L296.717 107.768L250.691 134.361Z" fill="#97A6FC"/>
<path opacity="0.6" d="M263.223 141.604L254.978 136.832L328.241 94.511L336.486 99.2669L263.223 141.604Z" fill="#97A6FC"/>
<path opacity="0.2" d="M275.568 148.722L267.307 143.966L324.343 111.017L332.588 115.773L275.568 148.722Z" fill="#97A6FC"/>
<defs>
<linearGradient id="paint0_linear" x1="99873" y1="-16361.8" x2="118835" y2="14425.1" gradientUnits="userSpaceOnUse">
<stop stop-color="#35068C"/>
<stop offset="0.02" stop-color="#40DDDA"/>
<stop offset="0.09" stop-color="#3AAEC0"/>
<stop offset="0.17" stop-color="#3484A9"/>
<stop offset="0.26" stop-color="#2F6195"/>
<stop offset="0.35" stop-color="#2B4486"/>
<stop offset="0.44" stop-color="#282E79"/>
<stop offset="0.54" stop-color="#261E71"/>
<stop offset="0.66" stop-color="#24156C"/>
<stop offset="0.82" stop-color="#24126A"/>
</linearGradient>
<linearGradient id="paint1_linear" x1="69.1791" y1="198.675" x2="380.214" y2="198.675" gradientUnits="userSpaceOnUse">
<stop stop-color="#3671E9"/>
<stop offset="0.15" stop-color="#91A2FA"/>
<stop offset="0.33" stop-color="#8B97F1"/>
<stop offset="0.52" stop-color="#7366C8"/>
<stop offset="0.72" stop-color="#654CB3"/>
<stop offset="0.93" stop-color="#4127A7"/>
<stop offset="1" stop-color="#260672"/>
</linearGradient>
<linearGradient id="paint2_linear" x1="22121.8" y1="44949.4" x2="84777.2" y2="44949.4" gradientUnits="userSpaceOnUse">
<stop stop-color="#42E8E0"/>
<stop offset="0.15" stop-color="#43E3E0"/>
<stop offset="0.33" stop-color="#45D5DF"/>
<stop offset="0.52" stop-color="#49BDDD"/>
<stop offset="0.72" stop-color="#4E9CDB"/>
<stop offset="0.93" stop-color="#5472D8"/>
<stop offset="1" stop-color="#5761D7"/>
</linearGradient>
<linearGradient id="paint3_linear" x1="102608" y1="-22405.8" x2="121570" y2="8381.16" gradientUnits="userSpaceOnUse">
<stop stop-color="#654CB2"/>
<stop offset="0.02" stop-color="#40DDDA"/>
<stop offset="0.09" stop-color="#3AAEC0"/>
<stop offset="0.17" stop-color="#3484A9"/>
<stop offset="0.26" stop-color="#2F6195"/>
<stop offset="0.35" stop-color="#2B4486"/>
<stop offset="0.44" stop-color="#282E79"/>
<stop offset="0.54" stop-color="#261E71"/>
<stop offset="0.66" stop-color="#24156C"/>
<stop offset="0.82" stop-color="#24126A"/>
</linearGradient>
<linearGradient id="paint4_linear" x1="225.442" y1="48.2268" x2="303.293" y2="436.924" gradientUnits="userSpaceOnUse">
<stop stop-color="#42E8E0"/>
<stop offset="0.02" stop-color="#40DDDA"/>
<stop offset="0.09" stop-color="#3AAEC0"/>
<stop offset="0.17" stop-color="#3484A9"/>
<stop offset="0.26" stop-color="#2F6195"/>
<stop offset="0.35" stop-color="#2B4486"/>
<stop offset="0.44" stop-color="#282E79"/>
<stop offset="0.54" stop-color="#261E71"/>
<stop offset="0.66" stop-color="#24156C"/>
<stop offset="0.82" stop-color="#24126A"/>
</linearGradient>
<linearGradient id="paint5_linear" x1="110.873" y1="132.03" x2="389.065" y2="132.03" gradientUnits="userSpaceOnUse">
<stop stop-color="#2B237C"/>
<stop offset="1" stop-color="#180D5B"/>
</linearGradient>
<linearGradient id="paint6_linear" x1="19961.9" y1="28242.6" x2="42817.5" y2="28242.6" gradientUnits="userSpaceOnUse">
<stop stop-color="#2B237C"/>
<stop offset="1" stop-color="#180D5B"/>
</linearGradient>
<linearGradient id="paint7_linear" x1="1030.96" y1="2021.27" x2="1035.07" y2="2080.98" gradientUnits="userSpaceOnUse">
<stop stop-color="#2B237D"/>
<stop offset="0.02" stop-color="#40DDDA"/>
<stop offset="0.09" stop-color="#3AAEC0"/>
<stop offset="0.17" stop-color="#3484A9"/>
<stop offset="0.26" stop-color="#2F6195"/>
<stop offset="0.35" stop-color="#2B4486"/>
<stop offset="0.44" stop-color="#282E79"/>
<stop offset="0.54" stop-color="#261E71"/>
<stop offset="0.66" stop-color="#24156C"/>
<stop offset="0.82" stop-color="#24126A"/>
</linearGradient>
<linearGradient id="paint8_linear" x1="1159.55" y1="1942.98" x2="1163.53" y2="2002.7" gradientUnits="userSpaceOnUse">
<stop stop-color="#2C247E"/>
<stop offset="0.02" stop-color="#40DDDA"/>
<stop offset="0.09" stop-color="#3AAEC0"/>
<stop offset="0.17" stop-color="#3484A9"/>
<stop offset="0.26" stop-color="#2F6195"/>
<stop offset="0.35" stop-color="#2B4486"/>
<stop offset="0.44" stop-color="#282E79"/>
<stop offset="0.54" stop-color="#261E71"/>
<stop offset="0.66" stop-color="#24156C"/>
<stop offset="0.82" stop-color="#24126A"/>
</linearGradient>
<linearGradient id="paint9_linear" x1="1460.15" y1="2407.07" x2="1467.74" y2="2491.26" gradientUnits="userSpaceOnUse">
<stop stop-color="#2B237C"/>
<stop offset="1" stop-color="#180D5B"/>
</linearGradient>
<linearGradient id="paint10_linear" x1="2463.47" y1="3243.33" x2="2547.26" y2="3257.55" gradientUnits="userSpaceOnUse">
<stop stop-color="#2B237C"/>
<stop offset="1" stop-color="#180D5B"/>
</linearGradient>
<linearGradient id="paint11_linear" x1="20942.3" y1="26125.2" x2="90706.6" y2="51436.8" gradientUnits="userSpaceOnUse">
<stop stop-color="#654DB3"/>
<stop offset="0.0899" stop-color="#40DDDA"/>
<stop offset="0.09" stop-color="#E9E9FE"/>
<stop offset="0.17" stop-color="#654DB3"/>
<stop offset="0.26" stop-color="#2F6195"/>
<stop offset="0.35" stop-color="#2B4486"/>
<stop offset="0.44" stop-color="#282E79"/>
<stop offset="0.54" stop-color="#261E71"/>
<stop offset="0.66" stop-color="#24156C"/>
<stop offset="0.82" stop-color="#24126A"/>
</linearGradient>
<linearGradient id="paint12_linear" x1="3137.8" y1="5043.83" x2="3276.46" y2="5064.76" gradientUnits="userSpaceOnUse">
<stop stop-color="#2B237C"/>
<stop offset="1" stop-color="#180D5B"/>
</linearGradient>
<linearGradient id="paint13_linear" x1="2938.49" y1="5198.92" x2="3077.15" y2="5219.85" gradientUnits="userSpaceOnUse">
<stop stop-color="#2B237C"/>
<stop offset="1" stop-color="#180D5B"/>
</linearGradient>
<linearGradient id="paint14_linear" x1="2480.2" y1="5346.32" x2="2651.03" y2="5372.14" gradientUnits="userSpaceOnUse">
<stop stop-color="#2B237C"/>
<stop offset="1" stop-color="#180D5B"/>
</linearGradient>
<linearGradient id="paint15_linear" x1="1550.94" y1="4456.31" x2="1575.03" y2="4748.35" gradientUnits="userSpaceOnUse">
<stop stop-color="#2C247D"/>
<stop offset="0.02" stop-color="#40DDDA"/>
<stop offset="0.09" stop-color="#3AAEC0"/>
<stop offset="0.17" stop-color="#3484A9"/>
<stop offset="0.26" stop-color="#2F6195"/>
<stop offset="0.35" stop-color="#2B4486"/>
<stop offset="0.44" stop-color="#282E79"/>
<stop offset="0.54" stop-color="#261E71"/>
<stop offset="0.66" stop-color="#24156C"/>
<stop offset="0.82" stop-color="#24126A"/>
</linearGradient>
<linearGradient id="paint16_linear" x1="1902.09" y1="4714.14" x2="1925.01" y2="5015.3" gradientUnits="userSpaceOnUse">
<stop stop-color="#2B237C"/>
<stop offset="1" stop-color="#180D5B"/>
</linearGradient>
<linearGradient id="paint17_linear" x1="14232.3" y1="13863.1" x2="14356.3" y2="17170.1" gradientUnits="userSpaceOnUse">
<stop stop-color="#91A2FA"/>
<stop offset="0.0199" stop-color="#91A2FA"/>
<stop offset="0.02" stop-color="#654DB3"/>
<stop offset="0.09" stop-color="#654DB3"/>
<stop offset="0.17" stop-color="#654DB3"/>
<stop offset="0.26" stop-color="#654CB3"/>
<stop offset="0.35" stop-color="#35068C"/>
<stop offset="0.44" stop-color="#35068C"/>
<stop offset="0.54" stop-color="#35068C"/>
<stop offset="0.66" stop-color="#35068C"/>
<stop offset="0.82" stop-color="#35068C"/>
</linearGradient>
</defs>
</svg>
