<svg width="604" height="586" viewBox="0 0 604 586" fill="none" xmlns="http://www.w3.org/2000/svg">
<g opacity="0.3">
<path opacity="0.3" d="M603.934 556.146V547.437L601.544 546.095C600.864 550.197 596.026 552.919 591.965 553.482L564.432 569.598L552.423 573.933L514.048 554.124L514.941 553.619C511.658 552.083 509.889 548.584 508.121 545.376L505.537 546.912L504.002 547.359V556.282C504.104 557.296 504.469 558.266 505.062 559.095C505.656 559.924 506.456 560.583 507.383 561.006L545.875 583.206C548.407 584.481 551.202 585.146 554.036 585.146C556.871 585.146 559.666 584.481 562.197 583.206L600.631 561.006C601.542 560.588 602.329 559.943 602.918 559.133C603.507 558.323 603.877 557.374 603.993 556.379C604.002 556.302 604.002 556.223 603.993 556.146H603.934Z" fill="url(#paint0_linear)"/>
<path opacity="0.3" d="M591.964 553.482L564.431 569.598L553.977 573.37V585.15C556.819 585.209 559.628 584.54 562.138 583.206L600.572 561.006C601.483 560.588 602.27 559.943 602.859 559.133C603.448 558.323 603.818 557.374 603.934 556.379C603.944 556.302 603.944 556.223 603.934 556.146V547.437L601.738 546.212H601.505C600.767 550.255 595.987 552.841 591.964 553.482Z" fill="#0F054C"/>
<path opacity="0.3" d="M545.876 574.342L507.442 552.141C502.934 549.556 502.934 545.318 507.442 542.713L545.876 520.512C548.407 519.237 551.202 518.573 554.037 518.573C556.871 518.573 559.666 519.237 562.198 520.512L600.632 542.713C605.12 545.318 605.12 549.556 600.632 552.141L562.198 574.342C559.669 575.626 556.873 576.295 554.037 576.295C551.201 576.295 548.405 575.626 545.876 574.342Z" fill="url(#paint1_linear)"/>
<g opacity="0.3">
<path opacity="0.3" d="M545.876 574.342L507.442 552.141C502.934 549.556 502.934 545.318 507.442 542.713L545.876 520.512C548.407 519.237 551.202 518.573 554.037 518.573C556.871 518.573 559.666 519.237 562.198 520.512L600.632 542.713C605.12 545.318 605.12 549.556 600.632 552.141L562.198 574.342C559.669 575.626 556.873 576.295 554.037 576.295C551.201 576.295 548.405 575.626 545.876 574.342Z" fill="#0F054C"/>
</g>
</g>
<path d="M553.977 546.29C551.454 546.335 548.96 545.74 546.73 544.56L508.296 522.359C507.388 522.04 506.602 521.447 506.045 520.662C505.489 519.877 505.19 518.938 505.19 517.975C505.19 517.013 505.489 516.074 506.045 515.289C506.602 514.504 507.388 513.91 508.296 513.592L546.73 491.391C548.975 490.26 551.454 489.67 553.968 489.67C556.482 489.67 558.96 490.26 561.206 491.391L599.659 513.592C600.567 513.91 601.353 514.504 601.909 515.289C602.466 516.074 602.764 517.013 602.764 517.975C602.764 518.938 602.466 519.877 601.909 520.662C601.353 521.447 600.567 522.04 599.659 522.359L561.225 544.56C558.994 545.74 556.501 546.335 553.977 546.29ZM553.977 490.341C551.571 490.293 549.191 490.855 547.06 491.974L508.626 514.175C507.828 514.44 507.134 514.95 506.642 515.632C506.15 516.314 505.885 517.134 505.885 517.975C505.885 518.817 506.15 519.636 506.642 520.319C507.134 521.001 507.828 521.511 508.626 521.776L547.06 543.976C549.202 545.059 551.568 545.624 553.968 545.624C556.367 545.624 558.734 545.059 560.875 543.976L599.309 521.737C600.107 521.472 600.802 520.962 601.294 520.28C601.786 519.598 602.051 518.778 602.051 517.936C602.051 517.095 601.786 516.275 601.294 515.593C600.802 514.911 600.107 514.401 599.309 514.136L560.875 491.935C558.747 490.832 556.374 490.283 553.977 490.341Z" fill="#42E8E0"/>
<path opacity="0.4" d="M603.934 509.451V496.29L601.544 494.949C600.864 499.07 596.026 501.772 591.965 502.336L564.432 518.452L552.423 522.787L514.048 502.977L514.941 502.472C511.658 500.936 509.889 497.437 508.121 494.229L505.537 495.765L504.002 496.212V509.587C504.104 510.601 504.469 511.571 505.062 512.4C505.656 513.229 506.456 513.888 507.383 514.311L545.875 536.511C548.404 537.795 551.2 538.465 554.036 538.465C556.872 538.465 559.668 537.795 562.197 536.511L600.631 514.311C601.542 513.893 602.329 513.248 602.918 512.438C603.507 511.628 603.877 510.679 603.993 509.684C604.002 509.607 604.002 509.528 603.993 509.451H603.934Z" fill="#42E8E0"/>
<path d="M603.934 497.748V489.039L601.544 487.697C600.864 491.819 596.026 494.521 591.965 495.085L564.432 511.2L552.423 515.535L514.048 495.726L514.941 495.221C511.658 493.685 509.889 490.186 508.121 486.978L505.537 488.533L504.002 488.961V497.884C504.104 498.898 504.469 499.868 505.062 500.697C505.656 501.526 506.456 502.185 507.383 502.608L545.875 524.808C548.404 526.092 551.2 526.762 554.036 526.762C556.872 526.762 559.668 526.092 562.197 524.808L600.631 502.608C601.542 502.19 602.329 501.545 602.918 500.735C603.507 499.925 603.877 498.976 603.993 497.981C604.002 497.904 604.002 497.825 603.993 497.748H603.934Z" fill="url(#paint2_linear)"/>
<path opacity="0.3" d="M591.964 495.084L564.431 511.2L553.977 514.971V526.752C556.819 526.81 559.628 526.141 562.138 524.808L600.572 502.607C601.483 502.19 602.27 501.545 602.859 500.735C603.448 499.924 603.818 498.976 603.934 497.981C603.944 497.903 603.944 497.825 603.934 497.747V489.038L601.738 487.813H601.505C600.767 491.857 595.987 494.52 591.964 495.084Z" fill="#0F054C"/>
<path d="M545.876 515.904L507.442 493.704C502.934 491.099 502.934 486.861 507.442 484.275L545.876 462.133C548.405 460.849 551.201 460.18 554.037 460.18C556.873 460.18 559.669 460.849 562.198 462.133L600.632 484.334C605.12 486.919 605.12 491.157 600.632 493.762L562.139 515.904C559.615 517.17 556.831 517.829 554.008 517.829C551.184 517.829 548.4 517.17 545.876 515.904Z" fill="url(#paint3_linear)"/>
<path d="M600.572 493.763L562.138 515.905C559.606 517.18 556.811 517.844 553.977 517.844C551.143 517.844 548.348 517.18 545.816 515.905L507.382 493.705C506.543 493.309 505.806 492.727 505.227 492.002C504.647 491.278 504.241 490.43 504.04 489.525C503.768 491.469 504.895 493.413 507.382 494.774L545.874 517.033C548.403 518.317 551.199 518.986 554.035 518.986C556.871 518.986 559.667 518.317 562.196 517.033L600.63 494.832C601.656 494.405 602.526 493.672 603.121 492.733C603.715 491.794 604.006 490.694 603.953 489.583C603.746 490.492 603.333 491.341 602.747 492.066C602.161 492.79 601.417 493.371 600.572 493.763Z" fill="white"/>
<path d="M534.677 488L447.253 435.683L419.458 451.718H419.135L365 419.81L365.323 419L419.458 450.746L447.253 434.711L447.899 435.035L535 487.19L534.677 488Z" fill="url(#paint4_linear)"/>
<g opacity="0.3">
<path opacity="0.3" d="M99.9996 555.204V546.494L97.5889 545.153C96.9085 549.274 92.068 551.977 88.0245 552.54L60.4585 568.656L48.4446 572.991L10.0505 553.182L10.9448 552.676C7.65942 551.141 5.89036 547.641 4.12132 544.434L1.53582 545.989L4.05312e-05 546.417V555.34C0.1018 556.354 0.467642 557.324 1.06115 558.153C1.65466 558.982 2.45508 559.641 3.38259 560.064L41.835 582.264C44.3651 583.548 47.1624 584.218 49.9998 584.218C52.8371 584.218 55.6345 583.548 58.1646 582.264L96.6169 560.064C97.5314 559.649 98.3232 559.005 98.9158 558.194C99.5084 557.384 99.8817 556.434 99.9996 555.437C99.9996 555.437 99.9996 555.281 99.9996 555.204Z" fill="url(#paint5_linear)"/>
<path opacity="0.3" d="M88.024 552.578L60.458 568.694L49.9993 572.466V584.246C52.8421 584.305 55.6526 583.636 58.164 582.302L96.6164 560.102C97.5308 559.687 98.3227 559.043 98.9153 558.233C99.5079 557.422 99.8812 556.472 99.999 555.475C99.999 555.475 99.999 555.319 99.999 555.242V546.533L97.7828 545.308H97.5496C96.8108 549.313 92.0286 551.976 88.024 552.578Z" fill="#0F054C"/>
<path opacity="0.3" d="M41.8349 573.419L3.38257 551.218C-1.12752 548.613 -1.12752 544.375 3.38257 541.79L41.8349 519.531C44.3651 518.247 47.1624 517.577 49.9998 517.577C52.8371 517.577 55.6344 518.247 58.1646 519.531L96.6169 541.731C101.108 544.317 101.108 548.555 96.6169 551.16L58.1646 573.419C55.6317 574.694 52.8355 575.358 49.9998 575.358C47.1641 575.358 44.3678 574.694 41.8349 573.419Z" fill="url(#paint6_linear)"/>
<g opacity="0.3">
<path opacity="0.3" d="M41.8354 573.419L3.38298 551.218C-1.12711 548.613 -1.12711 544.375 3.38298 541.79L41.8354 519.531C44.3655 518.247 47.1628 517.577 50.0002 517.577C52.8375 517.577 55.6348 518.247 58.165 519.531L96.6173 541.731C101.108 544.317 101.108 548.555 96.6173 551.16L58.165 573.419C55.6321 574.694 52.8359 575.358 50.0002 575.358C47.1645 575.358 44.3682 574.694 41.8354 573.419Z" fill="#0F054C"/>
</g>
</g>
<path d="M49.9998 541.11C47.4743 541.165 44.9771 540.569 42.7486 539.379L4.29623 517.179C3.3948 516.856 2.61517 516.262 2.06396 515.479C1.51275 514.696 1.2169 513.762 1.2169 512.805C1.2169 511.847 1.51275 510.913 2.06396 510.13C2.61517 509.347 3.3948 508.754 4.29623 508.431L42.7486 486.23C44.9955 485.09 47.4799 484.495 49.9998 484.495C52.5196 484.495 55.0039 485.09 57.2508 486.23L95.7032 508.431C96.6047 508.754 97.3843 509.347 97.9356 510.13C98.4868 510.913 98.7826 511.847 98.7826 512.805C98.7826 513.762 98.4868 514.696 97.9356 515.479C97.3843 516.262 96.6047 516.856 95.7032 517.179L57.2508 539.379C55.0224 540.569 52.5252 541.165 49.9998 541.11ZM43.0791 538.796C45.2218 539.879 47.5891 540.444 49.99 540.444C52.3909 540.444 54.7582 539.879 56.9009 538.796L95.3533 516.596C96.2123 516.4 96.9793 515.918 97.5288 515.229C98.0782 514.541 98.3774 513.686 98.3774 512.805C98.3774 511.924 98.0782 511.069 97.5288 510.38C96.9793 509.691 96.2123 509.21 95.3533 509.014L56.9009 486.814C54.761 485.721 52.3926 485.152 49.99 485.152C47.5874 485.152 45.2191 485.721 43.0791 486.814L4.62674 509.014C3.76775 509.21 3.00072 509.691 2.4513 510.38C1.90189 511.069 1.60264 511.924 1.60264 512.805C1.60264 513.686 1.90189 514.541 2.4513 515.229C3.00072 515.918 3.76775 516.4 4.62674 516.596L43.0791 538.796Z" fill="#42E8E0"/>
<path opacity="0.4" d="M99.9995 504.29V491.11L97.5889 489.768C96.9085 493.89 92.068 496.592 88.0244 497.155L60.4585 513.271L48.4445 517.587L10.0505 497.778L10.9447 497.272C7.65938 495.736 5.89032 492.237 4.12128 489.03L1.53578 490.585L0 491.012V504.407C0.0933683 505.421 0.456185 506.392 1.05091 507.219C1.64563 508.046 2.45061 508.7 3.38255 509.111L41.8349 531.312C44.365 532.596 47.1624 533.265 49.9998 533.265C52.8371 533.265 55.6344 532.596 58.1645 531.312L96.6169 509.111C97.5313 508.696 98.3232 508.052 98.9158 507.242C99.5084 506.431 99.8817 505.482 99.9995 504.484C99.9995 504.484 99.9995 504.329 99.9995 504.251V504.29Z" fill="#42E8E0"/>
<path d="M99.9995 492.568V483.859L97.5889 482.517C96.9085 486.638 92.068 489.341 88.0244 489.904L60.4585 506.02L48.4445 510.355L10.0505 490.546L10.9447 490.04C7.65938 488.505 5.89032 485.006 4.12128 481.817L1.53578 483.353L0 483.781V492.723C0.105005 493.734 0.472354 494.7 1.06568 495.525C1.659 496.35 2.45768 497.006 3.38255 497.428L41.8349 519.628C44.365 520.912 47.1624 521.582 49.9998 521.582C52.8371 521.582 55.6344 520.912 58.1645 519.628L96.6169 497.428C97.5313 497.013 98.3232 496.369 98.9158 495.559C99.5084 494.748 99.8817 493.798 99.9995 492.801C99.9995 492.801 99.9995 492.645 99.9995 492.568Z" fill="url(#paint7_linear)"/>
<path d="M41.8349 510.783L3.38257 488.582C-1.12752 485.977 -1.12752 481.739 3.38257 479.154L41.8349 456.953C44.3651 455.669 47.1624 455 49.9998 455C52.8371 455 55.6344 455.669 58.1646 456.953L96.6169 479.154C101.108 481.759 101.108 485.977 96.6169 488.582L58.1646 510.783C55.6344 512.067 52.8371 512.736 49.9998 512.736C47.1624 512.736 44.3651 512.067 41.8349 510.783Z" fill="url(#paint8_linear)"/>
<path d="M50.0001 506.739C47.7192 506.79 45.4633 506.255 43.4488 505.184L13.414 487.843C12.5927 487.552 11.8818 487.013 11.3791 486.301C10.8764 485.589 10.6066 484.739 10.6066 483.868C10.6066 482.996 10.8764 482.146 11.3791 481.434C11.8818 480.723 12.5927 480.184 13.414 479.892L43.4488 462.552C45.4778 461.518 47.7228 460.978 50.0001 460.978C52.2775 460.978 54.5225 461.518 56.5514 462.552L86.5863 479.892C87.4075 480.184 88.1183 480.723 88.621 481.434C89.1237 482.146 89.3936 482.996 89.3936 483.868C89.3936 484.739 89.1237 485.589 88.621 486.301C88.1183 487.013 87.4075 487.552 86.5863 487.843L56.5514 505.184C54.5369 506.255 52.281 506.79 50.0001 506.739ZM43.7793 504.601C45.7036 505.579 47.8317 506.089 49.9904 506.089C52.1491 506.089 54.2772 505.579 56.2015 504.601L86.2558 487.26C86.9769 487.032 87.6066 486.581 88.0536 485.971C88.5007 485.361 88.7416 484.624 88.7416 483.868C88.7416 483.112 88.5007 482.375 88.0536 481.765C87.6066 481.155 86.9769 480.703 86.2558 480.476L56.2015 463.154C54.2772 462.176 52.1491 461.666 49.9904 461.666C47.8317 461.666 45.7036 462.176 43.7793 463.154L13.7445 480.495C13.0694 480.789 12.4848 481.257 12.0509 481.851C11.6169 482.446 11.3493 483.145 11.2755 483.878C11.3518 484.612 11.6202 485.312 12.0537 485.91C12.4871 486.507 13.0703 486.979 13.7445 487.28L43.7793 504.601Z" fill="#5351AF"/>
<path d="M96.6166 488.583L58.1642 510.783C55.6341 512.067 52.8368 512.737 49.9994 512.737C47.1621 512.737 44.3647 512.067 41.8346 510.783L3.38222 488.583C2.54314 488.187 1.80565 487.605 1.22613 486.88C0.646599 486.156 0.240377 485.309 0.0385328 484.403C-0.0059178 485.517 0.290322 486.618 0.887729 487.559C1.48514 488.501 2.35532 489.237 3.38222 489.671L41.8346 511.872C44.3674 513.147 47.1637 513.811 49.9994 513.811C52.8351 513.811 55.6314 513.147 58.1642 511.872L96.6166 489.671C97.6432 489.239 98.5124 488.502 99.1069 487.56C99.7013 486.618 99.9924 485.516 99.9409 484.403C99.7425 485.307 99.3397 486.154 98.7635 486.878C98.1873 487.603 97.4529 488.186 96.6166 488.583Z" fill="white"/>
<path d="M54.7094 503.441L141.839 453.308L169.723 468.352L170.046 468.35L224.002 437.768L223.674 437.002L169.718 467.43L141.834 452.386L141.189 452.697L54.3817 502.675L54.7094 503.441Z" fill="url(#paint9_linear)"/>
<g opacity="0.3">
<path opacity="0.3" d="M602.903 202.896V194.187L600.495 192.845C599.815 196.947 594.979 199.669 590.94 200.232L563.4 216.329L551.398 220.683L513.041 200.874L513.934 200.349C510.652 198.833 508.885 195.314 507.117 192.126L504.534 193.662L503 194.089V203.032C503.091 204.047 503.453 205.019 504.047 205.846C504.642 206.674 505.447 207.326 506.379 207.736L544.795 229.937C547.322 231.221 550.117 231.89 552.952 231.89C555.786 231.89 558.581 231.221 561.109 229.937L599.524 207.736C600.438 207.322 601.229 206.678 601.821 205.867C602.413 205.057 602.786 204.107 602.903 203.11V202.896Z" fill="url(#paint10_linear)"/>
<path opacity="0.3" d="M590.939 200.232L563.4 216.329L552.951 220.119V231.9C555.791 231.959 558.599 231.289 561.108 229.956L599.523 207.756C600.437 207.341 601.228 206.697 601.82 205.886C602.412 205.076 602.785 204.126 602.903 203.129V202.915V194.206L600.708 192.981H600.475C599.698 197.005 594.94 199.669 590.939 200.232Z" fill="#0F054C"/>
<path opacity="0.3" d="M544.794 221.091L506.476 198.891C501.97 196.286 501.97 192.067 506.476 189.462L544.794 167.184C547.322 165.9 550.117 165.231 552.951 165.231C555.786 165.231 558.581 165.9 561.108 167.184L599.524 189.385C604.029 191.99 604.029 196.208 599.524 198.813L561.108 221.014C558.587 222.31 555.795 222.992 552.961 223.006C550.126 223.019 547.328 222.363 544.794 221.091Z" fill="url(#paint11_linear)"/>
<g opacity="0.3">
<path opacity="0.3" d="M544.794 221.091L506.476 198.891C501.97 196.286 501.97 192.067 506.476 189.462L544.794 167.184C547.322 165.9 550.117 165.231 552.951 165.231C555.786 165.231 558.581 165.9 561.108 167.184L599.524 189.385C604.029 191.99 604.029 196.208 599.524 198.813L561.108 221.014C558.587 222.31 555.795 222.992 552.961 223.006C550.126 223.019 547.328 222.363 544.794 221.091Z" fill="#0F054C"/>
</g>
</g>
<path d="M552.953 194.498C550.431 194.543 547.938 193.948 545.708 192.768L507.293 170.567C506.386 170.248 505.6 169.655 505.044 168.87C504.488 168.085 504.189 167.146 504.189 166.183C504.189 165.221 504.488 164.282 505.044 163.497C505.6 162.712 506.386 162.118 507.293 161.8L545.708 139.599C547.956 138.467 550.437 137.878 552.953 137.878C555.468 137.878 557.949 138.467 560.197 139.599L598.612 161.8C599.519 162.118 600.305 162.712 600.861 163.497C601.417 164.282 601.716 165.221 601.716 166.183C601.716 167.146 601.417 168.085 600.861 168.87C600.305 169.655 599.519 170.248 598.612 170.567L560.197 192.768C557.967 193.948 555.475 194.543 552.953 194.498ZM552.953 138.53C550.552 138.488 548.18 139.057 546.058 140.182L507.623 162.383C506.826 162.648 506.132 163.158 505.64 163.84C505.148 164.522 504.883 165.342 504.883 166.183C504.883 167.025 505.148 167.844 505.64 168.527C506.132 169.209 506.826 169.719 507.623 169.984L546.058 192.184C548.199 193.267 550.564 193.832 552.962 193.832C555.361 193.832 557.726 193.267 559.867 192.184L598.282 169.984C599.08 169.719 599.773 169.209 600.265 168.527C600.757 167.844 601.022 167.025 601.022 166.183C601.022 165.342 600.757 164.522 600.265 163.84C599.773 163.158 599.08 162.648 598.282 162.383L559.867 140.182C557.738 139.057 555.36 138.488 552.953 138.53Z" fill="#42E8E0"/>
<path opacity="0.4" d="M602.903 157.659V144.498L600.495 143.156C599.815 147.258 594.979 149.98 590.94 150.544L563.4 166.659L551.398 171.072L513.041 151.263L513.934 150.757C510.652 149.222 508.885 145.722 507.117 142.515L504.534 144.051L503 144.498V157.873C503.124 158.883 503.51 159.844 504.12 160.659C504.73 161.474 505.542 162.115 506.476 162.519L544.795 184.68C547.322 185.964 550.117 186.634 552.952 186.634C555.786 186.634 558.581 185.964 561.109 184.68L599.524 162.48C600.438 162.065 601.229 161.421 601.821 160.611C602.413 159.8 602.786 158.85 602.903 157.853V157.62V157.659Z" fill="#42E8E0"/>
<path d="M602.903 145.956V137.247L600.495 135.905C599.815 140.007 594.979 142.729 590.94 143.292L563.4 159.408L551.398 163.743L513.041 143.856L513.934 143.351C510.652 141.815 508.885 138.316 507.117 135.108L504.534 136.644L503 137.091V146.014C503.102 147.028 503.467 147.998 504.06 148.827C504.653 149.656 505.453 150.315 506.379 150.738L544.795 173.016C547.325 174.291 550.119 174.956 552.952 174.956C555.785 174.956 558.578 174.291 561.109 173.016L599.524 150.816C600.438 150.401 601.229 149.757 601.821 148.947C602.413 148.136 602.786 147.186 602.903 146.189V145.956Z" fill="url(#paint12_linear)"/>
<path opacity="0.3" d="M590.939 143.293L563.4 159.409L552.951 163.18V174.961C555.791 175.019 558.599 174.35 561.108 173.017L599.523 150.816C600.437 150.402 601.228 149.758 601.82 148.947C602.412 148.137 602.785 147.187 602.903 146.19V145.956V137.247L600.708 136.022H600.475C599.698 140.066 594.94 142.729 590.939 143.293Z" fill="#0F054C"/>
<path d="M513.934 143.428L550.349 122.472C551.16 122.065 552.054 121.853 552.961 121.853C553.868 121.853 554.763 122.065 555.573 122.472L591.328 143.137L590.94 143.37C594.979 142.806 599.815 140.084 600.495 135.983L560.351 113.627L548.698 110.536L539.182 116.134L507.137 135.263C508.885 138.393 510.652 141.912 513.934 143.428Z" fill="url(#paint13_linear)"/>
<path opacity="0.3" d="M552.951 111.605L548.679 110.458L539.162 116.057L507.117 135.186C508.884 138.393 510.652 141.893 513.934 143.428L550.349 122.472C551.145 122.033 552.043 121.811 552.951 121.83V111.605Z" fill="#0F054C"/>
<path d="M544.794 164.152L506.476 141.912C501.97 139.327 501.97 135.089 506.476 132.484L544.891 110.283C547.422 109.008 550.215 108.344 553.048 108.344C555.881 108.344 558.675 109.008 561.205 110.283L599.621 132.484C604.127 135.089 604.127 139.327 599.621 141.912L561.205 164.113C558.668 165.419 555.858 166.104 553.005 166.11C550.152 166.117 547.338 165.446 544.794 164.152ZM555.573 113.608C554.762 113.201 553.868 112.989 552.961 112.989C552.054 112.989 551.16 113.201 550.349 113.608L511.933 135.808C511.613 135.912 511.335 136.115 511.137 136.387C510.939 136.66 510.832 136.988 510.832 137.324C510.832 137.661 510.939 137.989 511.137 138.262C511.335 138.534 511.613 138.737 511.933 138.841L550.349 161.041C551.16 161.448 552.054 161.66 552.961 161.66C553.868 161.66 554.762 161.448 555.573 161.041L593.989 138.841C594.3 138.728 594.568 138.521 594.758 138.25C594.948 137.979 595.05 137.656 595.05 137.324C595.05 136.993 594.948 136.67 594.758 136.399C594.568 136.128 594.3 135.921 593.989 135.808L555.573 113.608Z" fill="url(#paint14_linear)"/>
<path d="M593.988 135.73L555.573 113.53C554.762 113.123 553.867 112.911 552.96 112.911C552.054 112.911 551.159 113.123 550.348 113.53L511.933 135.73C510.962 136.294 510.651 137.071 510.962 137.791C511.181 137.377 511.519 137.038 511.933 136.819L550.348 114.696C551.159 114.289 552.054 114.077 552.96 114.077C553.867 114.077 554.762 114.289 555.573 114.696L593.988 136.897C594.397 137.116 594.729 137.455 594.94 137.869C595.25 137.071 594.94 136.294 593.988 135.73Z" fill="white"/>
<path d="M599.525 141.912L561.11 164.112C558.582 165.397 555.787 166.066 552.953 166.066C550.118 166.066 547.323 165.397 544.796 164.112L506.477 141.912C505.639 141.522 504.901 140.944 504.322 140.222C503.743 139.501 503.337 138.655 503.137 137.752C503.094 138.863 503.391 139.961 503.988 140.899C504.584 141.837 505.453 142.57 506.477 143.001L544.796 165.24C547.323 166.524 550.118 167.193 552.953 167.193C555.787 167.193 558.582 166.524 561.11 165.24L599.525 143.039C600.549 142.609 601.418 141.876 602.015 140.938C602.612 140 602.909 138.902 602.866 137.791C602.66 138.687 602.252 139.525 601.673 140.239C601.094 140.953 600.359 141.526 599.525 141.912Z" fill="white"/>
<path d="M545.882 163.53L507.466 141.329C503.582 139.074 503.582 135.497 507.466 133.164L545.882 110.964C548.07 109.844 550.493 109.261 552.951 109.261C555.409 109.261 557.832 109.844 560.02 110.964L598.436 133.164C602.32 135.419 602.32 138.996 598.436 141.329L560.02 163.53C557.832 164.649 555.409 165.233 552.951 165.233C550.493 165.233 548.07 164.649 545.882 163.53ZM556.641 112.986C555.499 112.4 554.234 112.095 552.951 112.095C551.668 112.095 550.403 112.4 549.261 112.986L510.846 135.108C510.398 135.258 510.008 135.546 509.732 135.929C509.456 136.313 509.308 136.774 509.308 137.247C509.308 137.72 509.456 138.18 509.732 138.564C510.008 138.948 510.398 139.235 510.846 139.385L549.203 161.586C550.348 162.16 551.612 162.46 552.893 162.46C554.174 162.46 555.438 162.16 556.583 161.586L595.018 139.385C595.466 139.235 595.855 138.948 596.131 138.564C596.407 138.18 596.555 137.72 596.555 137.247C596.555 136.774 596.407 136.313 596.131 135.929C595.855 135.546 595.466 135.258 595.018 135.108L556.641 112.986Z" fill="url(#paint15_linear)"/>
<path opacity="0.4" d="M555.574 113.53C554.764 113.123 553.869 112.911 552.962 112.911C552.055 112.911 551.161 113.123 550.35 113.53L511.935 135.73C511.614 135.834 511.336 136.037 511.138 136.309C510.94 136.582 510.833 136.91 510.833 137.246C510.833 137.583 510.94 137.911 511.138 138.184C511.336 138.456 511.614 138.659 511.935 138.763L550.35 160.963C551.161 161.37 552.055 161.582 552.962 161.582C553.869 161.582 554.764 161.37 555.574 160.963L593.99 138.763C594.301 138.65 594.569 138.443 594.759 138.172C594.949 137.901 595.051 137.578 595.051 137.246C595.051 136.915 594.949 136.592 594.759 136.321C594.569 136.05 594.301 135.843 593.99 135.73L555.574 113.53Z" fill="#42E8E0"/>
<path d="M526.594 181.78L437.574 231.333L437.564 263.421L437.402 263.701L382.701 294.629L382.162 293.944L436.722 262.935L436.733 230.847L437.337 230.449L526.054 181.095L526.594 181.78Z" fill="url(#paint16_linear)"/>
<path opacity="0.5" d="M471.023 322.296L486.086 331.015V365.83L471.023 357.126V322.296Z" fill="#758EF5"/>
<path opacity="0.2" d="M455.961 331.015L471.024 339.719V357.126L455.961 348.423V331.015Z" fill="#758EF5"/>
<path opacity="0.5" d="M440.897 270.059L455.96 278.778V348.423L440.897 339.719V270.059Z" fill="#758EF5"/>
<path opacity="0.2" d="M425.819 243.948L440.897 252.652V339.719L425.819 331.015V243.948Z" fill="#758EF5"/>
<path opacity="0.5" d="M410.757 252.652L425.819 261.355V331.015L410.757 322.296V252.652Z" fill="#758EF5"/>
<path opacity="0.2" d="M395.693 191.711L410.756 200.415V322.296L395.693 313.592V191.711Z" fill="#758EF5"/>
<path opacity="0.5" d="M380.632 200.415L395.694 209.119V313.593L380.632 304.889V200.415Z" fill="#758EF5"/>
<path opacity="0.2" d="M365.569 209.118L380.632 217.822V304.888L365.569 296.185V209.118Z" fill="#758EF5"/>
<path opacity="0.5" d="M350.492 165.585L365.57 174.304V296.186L350.492 287.482V165.585Z" fill="#758EF5"/>
<path opacity="0.2" d="M335.429 122.067L350.491 130.77V287.482L335.429 278.762V122.067Z" fill="#758EF5"/>
<path opacity="0.5" d="M320.366 130.771L335.429 139.474V278.763L320.366 270.059V130.771Z" fill="#758EF5"/>
<path opacity="0.2" d="M305.304 87.2368L320.366 95.9404V270.059L305.304 261.355V87.2368Z" fill="#758EF5"/>
<path opacity="0.5" d="M290.225 78.5334L305.303 87.237V261.355L290.225 252.652V78.5334Z" fill="#758EF5"/>
<path opacity="0.2" d="M275.163 35L290.226 43.7036V252.652L275.163 243.948V35Z" fill="#758EF5"/>
<defs>
<linearGradient id="paint0_linear" x1="513.95" y1="530.116" x2="593.266" y2="575.884" gradientUnits="userSpaceOnUse">
<stop stop-color="#BCBEFF"/>
<stop offset="0.23" stop-color="#AAADF8"/>
<stop offset="0.68" stop-color="#7C83E5"/>
<stop offset="1" stop-color="#5761D7"/>
</linearGradient>
<linearGradient id="paint1_linear" x1="504.002" y1="547.437" x2="603.935" y2="547.437" gradientUnits="userSpaceOnUse">
<stop stop-color="#E9E9FD"/>
<stop offset="0.36" stop-color="#D3D2F9"/>
<stop offset="0.71" stop-color="#C5C4F7"/>
<stop offset="1" stop-color="#C0BFF6"/>
</linearGradient>
<linearGradient id="paint2_linear" x1="52360" y1="9528.62" x2="54111.4" y2="12071" gradientUnits="userSpaceOnUse">
<stop stop-color="#BCBEFF"/>
<stop offset="0.23" stop-color="#AAADF8"/>
<stop offset="0.68" stop-color="#7C83E5"/>
<stop offset="1" stop-color="#5761D7"/>
</linearGradient>
<linearGradient id="paint3_linear" x1="51817" y1="14075.8" x2="56956.7" y2="14075.8" gradientUnits="userSpaceOnUse">
<stop stop-color="#E9E9FD"/>
<stop offset="0.36" stop-color="#D3D2F9"/>
<stop offset="0.71" stop-color="#C5C4F7"/>
<stop offset="1" stop-color="#C0BFF6"/>
</linearGradient>
<linearGradient id="paint4_linear" x1="364.959" y1="453.479" x2="535.052" y2="453.479" gradientUnits="userSpaceOnUse">
<stop stop-color="#5778FF"/>
<stop offset="0.1042" stop-color="#567FFF"/>
<stop offset="0.2607" stop-color="#5394FF"/>
<stop offset="0.4503" stop-color="#4DB6FF"/>
<stop offset="0.6638" stop-color="#46E4FF"/>
<stop offset="0.7742" stop-color="#42FFFF"/>
</linearGradient>
<linearGradient id="paint5_linear" x1="43049.8" y1="11841.4" x2="44801.1" y2="14383.9" gradientUnits="userSpaceOnUse">
<stop stop-color="#BCBEFF"/>
<stop offset="0.23" stop-color="#AAADF8"/>
<stop offset="0.68" stop-color="#7C83E5"/>
<stop offset="1" stop-color="#5761D7"/>
</linearGradient>
<linearGradient id="paint6_linear" x1="42531.6" y1="17439.7" x2="47674.8" y2="17439.7" gradientUnits="userSpaceOnUse">
<stop stop-color="#E9E9FD"/>
<stop offset="0.36" stop-color="#D3D2F9"/>
<stop offset="0.71" stop-color="#C5C4F7"/>
<stop offset="1" stop-color="#C0BFF6"/>
</linearGradient>
<linearGradient id="paint7_linear" x1="43049.8" y1="10492.5" x2="44800.6" y2="13034.3" gradientUnits="userSpaceOnUse">
<stop stop-color="#BCBEFF"/>
<stop offset="0.23" stop-color="#AAADF8"/>
<stop offset="0.68" stop-color="#7C83E5"/>
<stop offset="1" stop-color="#5761D7"/>
</linearGradient>
<linearGradient id="paint8_linear" x1="42531.6" y1="15503.9" x2="47674.8" y2="15503.9" gradientUnits="userSpaceOnUse">
<stop stop-color="#E9E9FD"/>
<stop offset="0.36" stop-color="#D3D2F9"/>
<stop offset="0.71" stop-color="#C5C4F7"/>
<stop offset="1" stop-color="#C0BFF6"/>
</linearGradient>
<linearGradient id="paint9_linear" x1="224.231" y1="469.7" x2="54.1412" y2="470.704" gradientUnits="userSpaceOnUse">
<stop stop-color="#5778FF"/>
<stop offset="0.1042" stop-color="#567FFF"/>
<stop offset="0.2607" stop-color="#5394FF"/>
<stop offset="0.4503" stop-color="#4DB6FF"/>
<stop offset="0.6638" stop-color="#46E4FF"/>
<stop offset="0.7742" stop-color="#42FFFF"/>
</linearGradient>
<linearGradient id="paint10_linear" x1="26610.7" y1="5161.86" x2="28362.1" y2="7702.14" gradientUnits="userSpaceOnUse">
<stop stop-color="#BCBEFF"/>
<stop offset="0.23" stop-color="#AAADF8"/>
<stop offset="0.68" stop-color="#7C83E5"/>
<stop offset="1" stop-color="#5761D7"/>
</linearGradient>
<linearGradient id="paint11_linear" x1="26074.4" y1="7900.77" x2="31208.5" y2="7900.77" gradientUnits="userSpaceOnUse">
<stop stop-color="#E9E9FD"/>
<stop offset="0.36" stop-color="#D3D2F9"/>
<stop offset="0.71" stop-color="#C5C4F7"/>
<stop offset="1" stop-color="#C0BFF6"/>
</linearGradient>
<linearGradient id="paint12_linear" x1="26610.7" y1="3948.11" x2="28367.1" y2="6490.26" gradientUnits="userSpaceOnUse">
<stop stop-color="#BCBEFF"/>
<stop offset="0.23" stop-color="#AAADF8"/>
<stop offset="0.68" stop-color="#7C83E5"/>
<stop offset="1" stop-color="#5761D7"/>
</linearGradient>
<linearGradient id="paint13_linear" x1="517.702" y1="116.854" x2="588.41" y2="157.638" gradientUnits="userSpaceOnUse">
<stop offset="0.24" stop-color="#5761D7"/>
<stop offset="0.39" stop-color="#7A82E5"/>
<stop offset="0.55" stop-color="#979CF0"/>
<stop offset="0.7" stop-color="#ACAFF8"/>
<stop offset="0.85" stop-color="#B8BAFD"/>
<stop offset="1" stop-color="#BCBEFF"/>
</linearGradient>
<linearGradient id="paint14_linear" x1="26099.3" y1="6150.71" x2="31238.3" y2="6150.71" gradientUnits="userSpaceOnUse">
<stop stop-color="#E9E9FD"/>
<stop offset="0.36" stop-color="#D3D2F9"/>
<stop offset="0.71" stop-color="#C5C4F7"/>
<stop offset="1" stop-color="#C0BFF6"/>
</linearGradient>
<linearGradient id="paint15_linear" x1="25381.1" y1="5963.93" x2="30207.3" y2="5963.93" gradientUnits="userSpaceOnUse">
<stop stop-color="#E9E9FD"/>
<stop offset="0.36" stop-color="#D3D2F9"/>
<stop offset="0.71" stop-color="#C5C4F7"/>
<stop offset="1" stop-color="#C0BFF6"/>
</linearGradient>
<linearGradient id="paint16_linear" x1="411.839" y1="311.499" x2="496.886" y2="164.194" gradientUnits="userSpaceOnUse">
<stop stop-color="#5778FF"/>
<stop offset="0.1042" stop-color="#567FFF"/>
<stop offset="0.2607" stop-color="#5394FF"/>
<stop offset="0.4503" stop-color="#4DB6FF"/>
<stop offset="0.6638" stop-color="#46E4FF"/>
<stop offset="0.7742" stop-color="#42FFFF"/>
</linearGradient>
</defs>
</svg>
